<svg width="12" height="12" viewBox="0 0 12 12" fill="none" xmlns="http://www.w3.org/2000/svg">
<path d="M12 9.42857V12H0V9.42857C0.200893 9.42857 0.390625 9.39732 0.569196 9.33482C0.747768 9.27232 0.879464 9.21094 0.964286 9.15067C1.04911 9.0904 1.15402 9.0067 1.27902 8.89955C1.41295 8.77902 1.5279 8.6942 1.62388 8.64509C1.71987 8.59598 1.84598 8.57143 2.00223 8.57143C2.10938 8.57143 2.20759 8.58705 2.29688 8.6183C2.38616 8.64955 2.45536 8.68304 2.50446 8.71875C2.55357 8.75446 2.62723 8.81473 2.72545 8.89955C2.85491 9.01116 2.95982 9.09598 3.04018 9.15402C3.12054 9.21205 3.25 9.27232 3.42857 9.33482C3.60714 9.39732 3.79911 9.42857 4.00446 9.42857C4.20536 9.42857 4.39509 9.39621 4.57366 9.33147C4.75223 9.26674 4.8817 9.20647 4.96205 9.15067C5.04241 9.09487 5.14955 9.01116 5.28348 8.89955C5.37723 8.81473 5.44978 8.75446 5.50112 8.71875C5.55246 8.68304 5.62165 8.64955 5.70871 8.6183C5.79576 8.58705 5.89286 8.57143 6 8.57143C6.15625 8.57143 6.28237 8.59598 6.37835 8.64509C6.47433 8.6942 6.58929 8.77902 6.72321 8.89955C6.84821 9.0067 6.95313 9.0904 7.03795 9.15067C7.12277 9.21094 7.25446 9.27232 7.43304 9.33482C7.61161 9.39732 7.80134 9.42857 8.00223 9.42857C8.20313 9.42857 8.39286 9.39732 8.57143 9.33482C8.75 9.27232 8.8817 9.21094 8.96652 9.15067C9.05134 9.0904 9.15625 9.0067 9.28125 8.89955C9.41518 8.77902 9.53013 8.6942 9.62612 8.64509C9.7221 8.59598 9.84821 8.57143 10.0045 8.57143C10.1563 8.57143 10.2801 8.59598 10.3761 8.64509C10.4721 8.6942 10.5871 8.77902 10.721 8.89955C10.846 9.0067 10.9509 9.0904 11.0357 9.15067C11.1205 9.21094 11.2522 9.27232 11.4308 9.33482C11.6094 9.39732 11.7991 9.42857 12 9.42857ZM12 7.28571V8.57143C11.8929 8.57143 11.7946 8.5558 11.7054 8.52455C11.6161 8.4933 11.5469 8.45982 11.4978 8.42411C11.4487 8.38839 11.375 8.32813 11.2768 8.2433C11.1473 8.1317 11.0424 8.04688 10.9621 7.98884C10.8817 7.9308 10.7522 7.87054 10.5737 7.80804C10.3951 7.74554 10.2054 7.71429 10.0045 7.71429C9.79911 7.71429 9.60714 7.74554 9.42857 7.80804C9.25 7.87054 9.12054 7.9308 9.04018 7.98884C8.95982 8.04688 8.85491 8.1317 8.72545 8.2433C8.62723 8.32813 8.55357 8.38839 8.50446 8.42411C8.45536 8.45982 8.38616 8.4933 8.29688 8.52455C8.20759 8.5558 8.10938 8.57143 8.00223 8.57143C7.84598 8.57143 7.71987 8.54688 7.62388 8.49777C7.5279 8.44866 7.41295 8.36384 7.27902 8.2433C7.14955 8.1317 7.04464 8.04688 6.96429 7.98884C6.88393 7.9308 6.75446 7.87054 6.57589 7.80804C6.39732 7.74554 6.20536 7.71429 6 7.71429C5.79911 7.71429 5.60938 7.74665 5.4308 7.81138C5.25223 7.87612 5.12277 7.93638 5.04241 7.99219C4.96205 8.04799 4.85491 8.1317 4.72098 8.2433C4.62723 8.32813 4.55469 8.38839 4.50335 8.42411C4.45201 8.45982 4.38281 8.4933 4.29576 8.52455C4.20871 8.5558 4.11161 8.57143 4.00446 8.57143C3.84821 8.57143 3.7221 8.54688 3.62612 8.49777C3.53013 8.44866 3.41518 8.36384 3.28125 8.2433C3.15625 8.13616 3.05134 8.05246 2.96652 7.99219C2.8817 7.93192 2.75 7.87054 2.57143 7.80804C2.39286 7.74554 2.20313 7.71429 2.00223 7.71429C1.79688 7.71429 1.60491 7.74554 1.42634 7.80804C1.24777 7.87054 1.1183 7.9308 1.03795 7.98884C0.957589 8.04688 0.852679 8.1317 0.723214 8.2433C0.589286 8.36384 0.47433 8.44866 0.378348 8.49777C0.282366 8.54688 0.15625 8.57143 0 8.57143V7.28571C0 6.92857 0.125 6.625 0.375 6.375C0.625 6.125 0.928571 6 1.28571 6H1.71429V3H3.42857V6H5.14286V3H6.85714V6H8.57143V3H10.2857V6H10.7143C11.0714 6 11.375 6.125 11.625 6.375C11.875 6.625 12 6.92857 12 7.28571ZM3.42857 1.5C3.42857 1.84375 3.34821 2.10826 3.1875 2.29353C3.02679 2.47879 2.82143 2.57143 2.57143 2.57143C2.33482 2.57143 2.13281 2.48772 1.9654 2.32031C1.79799 2.1529 1.71429 1.95089 1.71429 1.71429C1.71429 1.58482 1.73549 1.47098 1.7779 1.37277C1.82031 1.27455 1.87277 1.19866 1.93527 1.14509C1.99777 1.09152 2.06696 1.02902 2.14286 0.957589C2.21875 0.886161 2.28795 0.815848 2.35045 0.746652C2.41295 0.677455 2.4654 0.578125 2.50781 0.448661C2.55022 0.319196 2.57143 0.169643 2.57143 0C2.74107 0 2.92634 0.165179 3.12723 0.495536C3.32813 0.825893 3.42857 1.16071 3.42857 1.5ZM6.85714 1.5C6.85714 1.84375 6.77679 2.10826 6.61607 2.29353C6.45536 2.47879 6.25 2.57143 6 2.57143C5.76339 2.57143 5.56138 2.48772 5.39397 2.32031C5.22656 2.1529 5.14286 1.95089 5.14286 1.71429C5.14286 1.58482 5.16406 1.47098 5.20647 1.37277C5.24888 1.27455 5.30134 1.19866 5.36384 1.14509C5.42634 1.09152 5.49554 1.02902 5.57143 0.957589C5.64732 0.886161 5.71652 0.815848 5.77902 0.746652C5.84152 0.677455 5.89397 0.578125 5.93638 0.448661C5.97879 0.319196 6 0.169643 6 0C6.16964 0 6.35491 0.165179 6.5558 0.495536C6.7567 0.825893 6.85714 1.16071 6.85714 1.5ZM10.2857 1.5C10.2857 1.84375 10.2054 2.10826 10.0446 2.29353C9.88393 2.47879 9.67857 2.57143 9.42857 2.57143C9.19196 2.57143 8.98996 2.48772 8.82254 2.32031C8.65513 2.1529 8.57143 1.95089 8.57143 1.71429C8.57143 1.58482 8.59263 1.47098 8.63504 1.37277C8.67746 1.27455 8.72991 1.19866 8.79241 1.14509C8.85491 1.09152 8.92411 1.02902 9 0.957589C9.07589 0.886161 9.14509 0.815848 9.20759 0.746652C9.27009 0.677455 9.32254 0.578125 9.36496 0.448661C9.40737 0.319196 9.42857 0.169643 9.42857 0C9.59821 0 9.78348 0.165179 9.98438 0.495536C10.1853 0.825893 10.2857 1.16071 10.2857 1.5Z" fill="#FBFBFB"/>
</svg>
