<svg xmlns="http://www.w3.org/2000/svg" width="78.079" height="66.166" viewBox="0 0 78.079 66.166">
    <path data-name="패스 2104" d="M77.061 4.5H46.582l-1.938.83-3.6 3.547-3.6-3.547L35.5 4.5H5.021L2.25 7.271v55.415l2.771 2.771h29.313l4.766 4.709h3.879l4.766-4.709h29.313l2.771-2.771V7.271L77.058 4.5zM38.27 61.689l-1-.943-1.773-.83H7.792V10.042h26.542l4.1 4.1-.167 47.546zm36.02-1.773H46.582l-1.938.83-.776.719V13.921l3.879-3.879H74.29zM29.958 21.125H13.333v5.542h16.625zm0 22.166H13.333v5.542h16.625zM13.333 32.208h16.625v5.542H13.333zm55.415-11.083H52.124v5.542h16.624zM52.124 32.208h16.624v5.542H52.124zm0 11.083h16.624v5.542H52.124z" style="stroke:#000;stroke-width:.5px;fill-rule:evenodd" transform="translate(-2 -4.25)"/>
</svg>
