<svg xmlns="http://www.w3.org/2000/svg" width="71.054" height="67.506" viewBox="0 0 71.054 67.506">
    <path d="M63.949 14.215H56.2a10.632 10.632 0 0 0-18.9-9.413l-1.776 2.38-1.773-2.417a10.636 10.636 0 0 0-18.9 9.45H7.105a7.051 7.051 0 0 0-7.07 7.105L0 60.402a7.081 7.081 0 0 0 7.105 7.1h56.844a7.081 7.081 0 0 0 7.105-7.1V21.321a7.081 7.081 0 0 0-7.105-7.106zM46.185 7.11a3.553 3.553 0 1 1-3.553 3.553 3.563 3.563 0 0 1 3.553-3.553zm-21.316 0a3.553 3.553 0 1 1-3.553 3.553 3.563 3.563 0 0 1 3.553-3.553zm39.08 53.292H7.105v-7.107h56.844zm0-17.764H7.105V21.321h18.048l-7.39 10.054 5.755 4.157 8.455-11.511 3.553-4.832 3.553 4.832 8.456 11.511 5.755-4.157-7.39-10.054h18.049z"/>
</svg>
