<svg width="12" height="12" viewBox="0 0 12 12" fill="none" xmlns="http://www.w3.org/2000/svg">
<path d="M6 0C9.31371 0 12 2.27826 12 5.08941C12 7.89993 9.31371 10.1782 6 10.1782C5.67004 10.1784 5.34041 10.1555 5.01314 10.1098L2.49429 11.9024C2.208 12.0672 2.10686 12.0492 2.22457 11.6456L2.73429 9.35867C1.08857 8.45084 0 6.8777 0 5.08941C0 2.27889 2.68629 0 6 0ZM9.37543 5.01168L10.2154 4.12624C10.2639 4.07147 10.2909 3.99836 10.2909 3.92232C10.2908 3.84628 10.2636 3.77325 10.215 3.7186C10.1664 3.66395 10.1002 3.63196 10.0304 3.62936C9.96052 3.62676 9.89248 3.65376 9.84057 3.70467L8.73886 4.86494V3.90613C8.73886 3.82829 8.71044 3.75364 8.65986 3.6986C8.60928 3.64356 8.54068 3.61264 8.46914 3.61264C8.39761 3.61264 8.32901 3.64356 8.27843 3.6986C8.22785 3.75364 8.19943 3.82829 8.19943 3.90613V5.49606C8.18932 5.54142 8.18932 5.58875 8.19943 5.6341V6.52887C8.19943 6.60671 8.22785 6.68136 8.27843 6.7364C8.32901 6.79143 8.39761 6.82236 8.46914 6.82236C8.54068 6.82236 8.60928 6.79143 8.65986 6.7364C8.71044 6.68136 8.73886 6.60671 8.73886 6.52887V5.68136L8.98286 5.42456L9.79886 6.68867C9.81923 6.72023 9.84512 6.74711 9.87504 6.76779C9.90496 6.78846 9.93833 6.80252 9.97325 6.80916C10.0082 6.8158 10.0439 6.81489 10.0785 6.80649C10.1131 6.79808 10.1459 6.78235 10.1749 6.76018C10.2039 6.73801 10.2286 6.70984 10.2476 6.67728C10.2666 6.64472 10.2795 6.60841 10.2856 6.57041C10.2917 6.53242 10.2909 6.49349 10.2831 6.45585C10.2754 6.41821 10.2609 6.38259 10.2406 6.35103L9.37543 5.01106V5.01168ZM7.68514 6.20802H6.85086V3.91546C6.84766 3.84004 6.81788 3.76886 6.76771 3.71671C6.71753 3.66457 6.65081 3.63547 6.58143 3.63547C6.51204 3.63547 6.44533 3.66457 6.39515 3.71671C6.34497 3.76886 6.31519 3.84004 6.312 3.91546V6.50151C6.312 6.66318 6.432 6.795 6.58114 6.795H7.68514C7.75668 6.795 7.82528 6.76408 7.87586 6.70904C7.92644 6.654 7.95486 6.57935 7.95486 6.50151C7.95486 6.42367 7.92644 6.34902 7.87586 6.29398C7.82528 6.23894 7.75668 6.20802 7.68514 6.20802V6.20802ZM4.33829 5.52902L4.736 4.46761L5.10057 5.52902H4.33829V5.52902ZM5.78 5.83246L5.78114 5.82251C5.78101 5.74857 5.75507 5.67745 5.70857 5.62353L5.11086 3.8825C5.0858 3.79953 5.03807 3.72686 4.97405 3.67419C4.91003 3.62153 4.83276 3.59138 4.75257 3.58777C4.67179 3.58738 4.59282 3.61377 4.52617 3.66342C4.45951 3.71307 4.40833 3.78363 4.37943 3.86571L3.43029 6.39953C3.41689 6.43522 3.41009 6.47342 3.41026 6.51197C3.41043 6.55051 3.41758 6.58864 3.4313 6.62418C3.44502 6.65972 3.46503 6.69197 3.4902 6.71909C3.51537 6.74621 3.54521 6.76767 3.578 6.78225C3.61079 6.79683 3.6459 6.80423 3.68133 6.80404C3.71675 6.80385 3.75179 6.79607 3.78445 6.78115C3.81711 6.76622 3.84675 6.74444 3.87167 6.71705C3.8966 6.68966 3.91632 6.6572 3.92971 6.62152L4.11829 6.11599H5.30114L5.472 6.61343C5.48362 6.65061 5.50197 6.68488 5.52598 6.7142C5.54999 6.74353 5.57916 6.76731 5.61177 6.78414C5.64438 6.80097 5.67976 6.81051 5.71582 6.81219C5.75188 6.81387 5.78788 6.80766 5.82169 6.79392C5.8555 6.78019 5.88644 6.75921 5.91266 6.73223C5.93889 6.70525 5.95987 6.67282 5.97436 6.63685C5.98886 6.60088 5.99658 6.56212 5.99705 6.52285C5.99753 6.48358 5.99076 6.44461 5.97714 6.40824L5.78 5.83246V5.83246ZM3.88171 3.91856C3.88171 3.84083 3.85338 3.76628 3.80292 3.71126C3.75246 3.65623 3.68401 3.62524 3.61257 3.62508H1.75829C1.68675 3.62508 1.61815 3.656 1.56757 3.71104C1.51699 3.76608 1.48857 3.84073 1.48857 3.91856C1.48857 3.9964 1.51699 4.07105 1.56757 4.12609C1.61815 4.18113 1.68675 4.21205 1.75829 4.21205H2.42114V6.53509C2.42114 6.61292 2.44956 6.68757 2.50014 6.74261C2.55072 6.79765 2.61932 6.82857 2.69086 6.82857C2.76239 6.82857 2.83099 6.79765 2.88157 6.74261C2.93216 6.68757 2.96057 6.61292 2.96057 6.53509V4.21205H3.612C3.68353 4.21205 3.75214 4.18113 3.80272 4.12609C3.8533 4.07105 3.88171 3.9964 3.88171 3.91856V3.91856Z" fill="#333333"/>
</svg>
