<svg width="12" height="12" viewBox="0 0 12 12" fill="none" xmlns="http://www.w3.org/2000/svg">
<path d="M6 0.75C4.90638 0.75129 3.85792 1.1863 3.08461 1.95961C2.31131 2.73292 1.87629 3.78138 1.875 4.875C1.87369 5.76871 2.16562 6.63817 2.706 7.35C2.706 7.35 2.8185 7.49813 2.83688 7.5195L6 11.25L9.16463 7.51763C9.18113 7.49775 9.294 7.35 9.294 7.35L9.29438 7.34888C9.83449 6.63735 10.1263 5.7683 10.125 4.875C10.1237 3.78138 9.6887 2.73292 8.91539 1.95961C8.14209 1.1863 7.09363 0.75129 6 0.75V0.75ZM7.35 6.75L6 5.89087L4.65 6.75L4.875 5.22225L3.75 4.18988L5.325 3.99975L6 2.625L6.717 4.00012L8.25 4.18988L7.125 5.22225L7.35 6.75Z" fill="#FBFBFB"/>
</svg>
