<svg width="12" height="12" viewBox="0 0 12 12" fill="none" xmlns="http://www.w3.org/2000/svg">
<path d="M10.8 4.4237V8.6999C10.8 9.09773 10.642 9.47926 10.3607 9.76056C10.0794 10.0419 9.69784 10.1999 9.30001 10.1999H2.70001C2.30219 10.1999 1.92066 10.0419 1.63935 9.76056C1.35805 9.47926 1.20001 9.09773 1.20001 8.6999V4.4237L5.84761 7.1585C5.89378 7.18573 5.94641 7.2001 6.00001 7.2001C6.05362 7.2001 6.10624 7.18573 6.15241 7.1585L10.8 4.4237ZM9.30001 2.3999C9.6691 2.39984 10.0253 2.53587 10.3003 2.78195C10.5754 3.02803 10.7501 3.36689 10.791 3.7337L6.00001 6.5519L1.20901 3.7337C1.24991 3.36689 1.42461 3.02803 1.69969 2.78195C1.97477 2.53587 2.33092 2.39984 2.70001 2.3999H9.30001Z" fill="#FBFBFB"/>
</svg>
