<svg width="12" height="12" viewBox="0 0 12 12" fill="none" xmlns="http://www.w3.org/2000/svg">
<mask id="mask0_79_50" style="mask-type:alpha" maskUnits="userSpaceOnUse" x="0" y="0" width="12" height="12">
<path d="M6 5C6.22981 5 6.45738 4.95474 6.6697 4.86679C6.88202 4.77884 7.07493 4.64994 7.23744 4.48744C7.39994 4.32493 7.52884 4.13202 7.61679 3.9197C7.70474 3.70738 7.75 3.47981 7.75 3.25C7.75 3.02019 7.70474 2.79262 7.61679 2.5803C7.52884 2.36798 7.39994 2.17507 7.23744 2.01256C7.07493 1.85006 6.88202 1.72116 6.6697 1.63321C6.45738 1.54527 6.22981 1.5 6 1.5C5.53587 1.5 5.09075 1.68437 4.76256 2.01256C4.43437 2.34075 4.25 2.78587 4.25 3.25C4.25 3.71413 4.43437 4.15925 4.76256 4.48744C5.09075 4.81563 5.53587 5 6 5V5ZM1.5 10.2V10.5H10.5V10.2C10.5 9.08 10.5 8.52 10.282 8.092C10.0903 7.71569 9.78431 7.40974 9.408 7.218C8.98 7 8.42 7 7.3 7H4.7C3.58 7 3.02 7 2.592 7.218C2.21569 7.40974 1.90974 7.71569 1.718 8.092C1.5 8.52 1.5 9.08 1.5 10.2Z" fill="white" stroke="white" stroke-width="2.5" stroke-linecap="round" stroke-linejoin="round"/>
</mask>
<g mask="url(#mask0_79_50)">
<path d="M0 0H12V12H0V0Z" fill="#FBFBFB"/>
</g>
</svg>
