<svg width="12" height="12" viewBox="0 0 12 12" fill="none" xmlns="http://www.w3.org/2000/svg">
<path d="M5.07333 6.87991C5.76916 7.58579 6.61109 8.13078 7.54 8.47658L8.79666 7.47658C8.83392 7.45092 8.87809 7.43718 8.92333 7.43718C8.96857 7.43718 9.01274 7.45092 9.05 7.47658L11.3833 8.97991C11.4719 9.03317 11.5469 9.1063 11.6024 9.19351C11.6578 9.28073 11.6923 9.37965 11.7029 9.48246C11.7136 9.58526 11.7002 9.68914 11.6638 9.78589C11.6275 9.88264 11.5691 9.9696 11.4933 10.0399L10.4 11.1199C10.2434 11.2746 10.051 11.3882 9.83985 11.4504C9.62871 11.5126 9.40545 11.5216 9.19 11.4766C7.04074 11.0327 5.05971 9.99308 3.47333 8.47658C1.92216 6.945 0.848756 4.9962 0.383332 2.86658C0.337354 2.65446 0.34695 2.43406 0.41119 2.22674C0.475431 2.01942 0.592137 1.83221 0.749998 1.68325L1.88333 0.589913C1.95346 0.517842 2.03899 0.462571 2.13351 0.428239C2.22803 0.393907 2.3291 0.381402 2.42914 0.391663C2.52917 0.401923 2.62559 0.434682 2.71118 0.487486C2.79676 0.540291 2.86929 0.611773 2.92333 0.69658L4.47666 2.99991C4.50346 3.03608 4.51792 3.0799 4.51792 3.12491C4.51792 3.16992 4.50346 3.21374 4.47666 3.24991L3.45333 4.47991C3.80853 5.39023 4.36191 6.21005 5.07333 6.87991V6.87991Z" fill="#FBFBFB"/>
</svg>
